<svg id="visual" viewBox="0 0 900 600" width="900" height="600" xmlns="http://www.w3.org/2000/svg" xmlns:xlink="http://www.w3.org/1999/xlink" version="1.1"><rect x="0" y="0" width="900" height="600" fill="#FFFFFF"></rect><path d="M0 293L13.7 293.7C27.3 294.3 54.7 295.7 82 291.3C109.3 287 136.7 277 163.8 265.8C191 254.7 218 242.3 245.2 243.2C272.3 244 299.7 258 327 271.3C354.3 284.7 381.7 297.3 409 295.7C436.3 294 463.7 278 491 272.3C518.3 266.7 545.7 271.3 573 263.8C600.3 256.3 627.7 236.7 654.8 230.7C682 224.7 709 232.3 736.2 229.3C763.3 226.3 790.7 212.7 818 228.2C845.3 243.7 872.7 288.3 886.3 310.7L900 333L900 0L886.3 0C872.7 0 845.3 0 818 0C790.7 0 763.3 0 736.2 0C709 0 682 0 654.8 0C627.7 0 600.3 0 573 0C545.7 0 518.3 0 491 0C463.7 0 436.3 0 409 0C381.7 0 354.3 0 327 0C299.7 0 272.3 0 245.2 0C218 0 191 0 163.8 0C136.7 0 109.3 0 82 0C54.7 0 27.3 0 13.7 0L0 0Z" fill="#194949"></path><path d="M0 160L13.7 157.5C27.3 155 54.7 150 82 153.2C109.3 156.3 136.7 167.7 163.8 184.7C191 201.7 218 224.3 245.2 223.7C272.3 223 299.7 199 327 184.2C354.3 169.3 381.7 163.7 409 159.2C436.3 154.7 463.7 151.3 491 155.2C518.3 159 545.7 170 573 173.5C600.3 177 627.7 173 654.8 184C682 195 709 221 736.2 213.3C763.3 205.7 790.7 164.3 818 153.7C845.3 143 872.7 163 886.3 173L900 183L900 0L886.3 0C872.7 0 845.3 0 818 0C790.7 0 763.3 0 736.2 0C709 0 682 0 654.8 0C627.7 0 600.3 0 573 0C545.7 0 518.3 0 491 0C463.7 0 436.3 0 409 0C381.7 0 354.3 0 327 0C299.7 0 272.3 0 245.2 0C218 0 191 0 163.8 0C136.7 0 109.3 0 82 0C54.7 0 27.3 0 13.7 0L0 0Z" fill="#518c7a"></path><path d="M0 143L13.7 129.2C27.3 115.3 54.7 87.7 82 74.5C109.3 61.3 136.7 62.7 163.8 71.2C191 79.7 218 95.3 245.2 93.3C272.3 91.3 299.7 71.7 327 67.5C354.3 63.3 381.7 74.7 409 89.3C436.3 104 463.7 122 491 119C518.3 116 545.7 92 573 91C600.3 90 627.7 112 654.8 115.7C682 119.3 709 104.7 736.2 102.7C763.3 100.7 790.7 111.3 818 105.5C845.3 99.7 872.7 77.3 886.3 66.2L900 55L900 0L886.3 0C872.7 0 845.3 0 818 0C790.7 0 763.3 0 736.2 0C709 0 682 0 654.8 0C627.7 0 600.3 0 573 0C545.7 0 518.3 0 491 0C463.7 0 436.3 0 409 0C381.7 0 354.3 0 327 0C299.7 0 272.3 0 245.2 0C218 0 191 0 163.8 0C136.7 0 109.3 0 82 0C54.7 0 27.3 0 13.7 0L0 0Z" fill="#9fd3a5"></path></svg>