<svg id="visual" viewBox="0 0 900 600" width="900" height="600" xmlns="http://www.w3.org/2000/svg" xmlns:xlink="http://www.w3.org/1999/xlink" version="1.1"><rect x="0" y="0" width="900" height="600" fill="#FFFFFF"></rect><path d="M0 291L25 291.5C50 292 100 293 150 290.5C200 288 250 282 300 278.3C350 274.7 400 273.3 450 263.7C500 254 550 236 600 243.7C650 251.3 700 284.7 750 300.2C800 315.7 850 313.3 875 312.2L900 311L900 0L875 0C850 0 800 0 750 0C700 0 650 0 600 0C550 0 500 0 450 0C400 0 350 0 300 0C250 0 200 0 150 0C100 0 50 0 25 0L0 0Z" fill="#194949"></path><path d="M0 266L25 249.7C50 233.3 100 200.7 150 201.2C200 201.7 250 235.3 300 236.3C350 237.3 400 205.7 450 200.5C500 195.3 550 216.7 600 226.7C650 236.7 700 235.3 750 226.2C800 217 850 200 875 191.5L900 183L900 0L875 0C850 0 800 0 750 0C700 0 650 0 600 0C550 0 500 0 450 0C400 0 350 0 300 0C250 0 200 0 150 0C100 0 50 0 25 0L0 0Z" fill="#3b7d73"></path><path d="M0 161L25 151.5C50 142 100 123 150 128.2C200 133.3 250 162.7 300 165.8C350 169 400 146 450 140.5C500 135 550 147 600 144.8C650 142.7 700 126.3 750 116.3C800 106.3 850 102.7 875 100.8L900 99L900 0L875 0C850 0 800 0 750 0C700 0 650 0 600 0C550 0 500 0 450 0C400 0 350 0 300 0C250 0 200 0 150 0C100 0 50 0 25 0L0 0Z" fill="#68b49a"></path><path d="M0 95L25 95.2C50 95.3 100 95.7 150 88.3C200 81 250 66 300 59C350 52 400 53 450 62.5C500 72 550 90 600 88.7C650 87.3 700 66.7 750 57.7C800 48.7 850 51.3 875 52.7L900 54L900 0L875 0C850 0 800 0 750 0C700 0 650 0 600 0C550 0 500 0 450 0C400 0 350 0 300 0C250 0 200 0 150 0C100 0 50 0 25 0L0 0Z" fill="#a1eebd"></path></svg>