<svg id="visual" viewBox="0 0 675 900" width="675" height="900" xmlns="http://www.w3.org/2000/svg" xmlns:xlink="http://www.w3.org/1999/xlink" version="1.1"><rect x="0" y="0" width="675" height="900" fill="#2c6856"></rect><path d="M0 440L10.2 440.8C20.3 441.7 40.7 443.3 61.2 436.7C81.7 430 102.3 415 122.8 398.5C143.3 382 163.7 364 184 365.5C204.3 367 224.7 388 245.2 407.8C265.7 427.7 286.3 446.3 306.8 443.8C327.3 441.3 347.7 417.7 368.2 409.3C388.7 401 409.3 408 429.8 396.7C450.3 385.3 470.7 355.7 491 346.7C511.3 337.7 531.7 349.3 552.2 345C572.7 340.7 593.3 320.3 613.8 343.5C634.3 366.7 654.7 433.3 664.8 466.7L675 500L675 0L664.8 0C654.7 0 634.3 0 613.8 0C593.3 0 572.7 0 552.2 0C531.7 0 511.3 0 491 0C470.7 0 450.3 0 429.8 0C409.3 0 388.7 0 368.2 0C347.7 0 327.3 0 306.8 0C286.3 0 265.7 0 245.2 0C224.7 0 204.3 0 184 0C163.7 0 143.3 0 122.8 0C102.3 0 81.7 0 61.2 0C40.7 0 20.3 0 10.2 0L0 0Z" fill="#194949"></path><path d="M0 241L10.2 237.2C20.3 233.3 40.7 225.7 61.2 230.3C81.7 235 102.3 252 122.8 277.3C143.3 302.7 163.7 336.3 184 335.5C204.3 334.7 224.7 299.3 245.2 277.2C265.7 255 286.3 246 306.8 239.2C327.3 232.3 347.7 227.7 368.2 233.7C388.7 239.7 409.3 256.3 429.8 261.5C450.3 266.7 470.7 260.3 491 276.8C511.3 293.3 531.7 332.7 552.2 321C572.7 309.3 593.3 246.7 613.8 230.7C634.3 214.7 654.7 245.3 664.8 260.7L675 276L675 0L664.8 0C654.7 0 634.3 0 613.8 0C593.3 0 572.7 0 552.2 0C531.7 0 511.3 0 491 0C470.7 0 450.3 0 429.8 0C409.3 0 388.7 0 368.2 0C347.7 0 327.3 0 306.8 0C286.3 0 265.7 0 245.2 0C224.7 0 204.3 0 184 0C163.7 0 143.3 0 122.8 0C102.3 0 81.7 0 61.2 0C40.7 0 20.3 0 10.2 0L0 0Z" fill="#518c7a"></path><path d="M0 216L10.2 195.2C20.3 174.3 40.7 132.7 61.2 112.8C81.7 93 102.3 95 122.8 107.7C143.3 120.3 163.7 143.7 184 140.5C204.3 137.3 224.7 107.7 245.2 101.5C265.7 95.3 286.3 112.7 306.8 134.8C327.3 157 347.7 184 368.2 179.3C388.7 174.7 409.3 138.3 429.8 136.8C450.3 135.3 470.7 168.7 491 174.3C511.3 180 531.7 158 552.2 154.8C572.7 151.7 593.3 167.3 613.8 158.5C634.3 149.7 654.7 116.3 664.8 99.7L675 83L675 0L664.8 0C654.7 0 634.3 0 613.8 0C593.3 0 572.7 0 552.2 0C531.7 0 511.3 0 491 0C470.7 0 450.3 0 429.8 0C409.3 0 388.7 0 368.2 0C347.7 0 327.3 0 306.8 0C286.3 0 265.7 0 245.2 0C224.7 0 204.3 0 184 0C163.7 0 143.3 0 122.8 0C102.3 0 81.7 0 61.2 0C40.7 0 20.3 0 10.2 0L0 0Z" fill="#9fd3a5"></path></svg>