
<svg id="visual" viewBox="0 0 960 540" width="960" height="540" xmlns="http://www.w3.org/2000/svg" xmlns:xlink="http://www.w3.org/1999/xlink" version="1.1"><rect x="0" y="0" width="960" height="540" fill="#2c6856"></rect><path d="M0 263L14.5 263.7C29 264.3 58 265.7 87.2 261.8C116.3 258 145.7 249 174.8 239C204 229 233 218 262 218.8C291 219.7 320 232.3 349 244.3C378 256.3 407 267.7 436.2 266.2C465.3 264.7 494.7 250.3 523.8 245.3C553 240.3 582 244.7 611 237.8C640 231 669 213 698 207.5C727 202 756 209 785.2 206.3C814.3 203.7 843.7 191.3 872.8 205.3C902 219.3 931 259.7 945.5 279.8L960 300L960 0L945.5 0C931 0 902 0 872.8 0C843.7 0 814.3 0 785.2 0C756 0 727 0 698 0C669 0 640 0 611 0C582 0 553 0 523.8 0C494.7 0 465.3 0 436.2 0C407 0 378 0 349 0C320 0 291 0 262 0C233 0 204 0 174.8 0C145.7 0 116.3 0 87.2 0C58 0 29 0 14.5 0L0 0Z" fill="#194949"></path><path d="M0 144L14.5 141.7C29 139.3 58 134.7 87.2 137.5C116.3 140.3 145.7 150.7 174.8 166C204 181.3 233 201.7 262 201.2C291 200.7 320 179.3 349 166C378 152.7 407 147.3 436.2 143.2C465.3 139 494.7 136 523.8 139.5C553 143 582 153 611 156.2C640 159.3 669 155.7 698 165.7C727 175.7 756 199.3 785.2 192.3C814.3 185.3 843.7 147.7 872.8 138C902 128.3 931 146.7 945.5 155.8L960 165L960 0L945.5 0C931 0 902 0 872.8 0C843.7 0 814.3 0 785.2 0C756 0 727 0 698 0C669 0 640 0 611 0C582 0 553 0 523.8 0C494.7 0 465.3 0 436.2 0C407 0 378 0 349 0C320 0 291 0 262 0C233 0 204 0 174.8 0C145.7 0 116.3 0 87.2 0C58 0 29 0 14.5 0L0 0Z" fill="#518c7a"></path><path d="M0 129L14.5 116.5C29 104 58 79 87.2 67.2C116.3 55.3 145.7 56.7 174.8 64.3C204 72 233 86 262 84C291 82 320 64 349 60.3C378 56.7 407 67.3 436.2 80.7C465.3 94 494.7 110 523.8 107.2C553 104.3 582 82.7 611 81.8C640 81 669 101 698 104.3C727 107.7 756 94.3 785.2 92.3C814.3 90.3 843.7 99.7 872.8 94.5C902 89.3 931 69.7 945.5 59.8L960 50L960 0L945.5 0C931 0 902 0 872.8 0C843.7 0 814.3 0 785.2 0C756 0 727 0 698 0C669 0 640 0 611 0C582 0 553 0 523.8 0C494.7 0 465.3 0 436.2 0C407 0 378 0 349 0C320 0 291 0 262 0C233 0 204 0 174.8 0C145.7 0 116.3 0 87.2 0C58 0 29 0 14.5 0L0 0Z" fill="#9fd3a5"></path></svg>